<svg xmlns="http://www.w3.org/2000/svg" viewBox="-2 -2 36 36" width="32" height="32">
  <title>Jarvis UI</title>
  <style>
    path {
      fill: #18181b;
    }

    @media (prefers-color-scheme: dark) {
      path {
        fill: #fafafa;
      }
    }
  </style>
  <g>
    <path d="m30.48 7.625 -28.95 0 0 -4.57 -1.53 0 0 25.9 1.53 0 0 -19.81 28.95 0 0 19.81 1.52 0 0 -25.9 -1.52 0 0 4.57z" />
    <path d="M1.53 28.955h28.95v1.52H1.53Z" />
    <path d="M25.91 19.815h1.52v4.57h-1.52Z" />
    <path d="M24.38 24.385h1.53v1.52h-1.53Z" />
    <path d="M24.38 18.285h1.53v1.53h-1.53Z" />
    <path d="M19.81 25.905h4.57v1.53h-4.57Z" />
    <path d="m24.38 18.285 0 -1.52 -1.52 0 0 -6.09 -18.29 0 0 9.14 3.05 0 0 -1.53 -1.52 0 0 -6.09 15.24 0 0 4.57 -1.53 0 0 1.52 4.57 0z" />
    <path d="M18.29 24.385h1.52v1.52h-1.52Z" />
    <path d="M18.29 18.285h1.52v1.53h-1.52Z" />
    <path d="M16.76 19.815h1.53v4.57h-1.53Z" />
    <path d="M9.14 4.575h1.53v1.52H9.14Z" />
    <path d="m6.1 21.335 0 1.53 -1.53 0 0 1.52 10.67 0 0 -4.57 -1.52 0 0 -1.53 -1.53 0 0 -1.52 -1.52 0 0 1.52 -1.53 0 0 1.53 -1.52 0z" />
    <path d="M6.1 4.575h1.52v1.52H6.1Z" />
    <path d="M3.05 4.575h1.52v1.52H3.05Z" />
    <path d="M1.53 1.525h28.95v1.53H1.53Z" />
  </g>
</svg>
